<?xml version="1.0" encoding="UTF-8"?>
<svg width="75px" height="120px" viewBox="0 0 75 120" version="1.1" xmlns="http://www.w3.org/2000/svg" xmlns:xlink="http://www.w3.org/1999/xlink">
    <title>logo_monoku_white@1x</title>
    <g id="☕️-Coffee-Machine" stroke="none" stroke-width="1" fill="none" fill-rule="evenodd">
        <g id="007" transform="translate(-150.000000, -261.000000)" fill="#FFFFFF">
            <g id="logo_monoku_white" transform="translate(150.000000, 261.000000)">
                <path d="M68.2712498,43.9952483 C68.2705353,45.6071738 69.1808115,47.0810887 70.6224188,47.8022495 L71.965424,48.4755718 C73.4070313,49.1967326 74.3165934,50.6706475 74.3165934,52.282573 L74.3165934,77.734159 C74.3165934,79.3410369 73.4113652,80.8108546 71.9763427,81.533881 L70.6333375,82.2072033 C69.1917303,82.9283641 68.281454,84.402279 68.2821686,86.0142045 L68.2821686,117.733148 C68.2821686,118.73819 67.4674208,119.552938 66.4623784,119.552938 L55.9075951,119.552938 C54.9025527,119.552938 54.0878049,118.73819 54.0878049,117.733148 L54.0878049,85.428232 C54.0870903,83.8163065 54.9973666,82.3423917 56.4389738,81.6212309 L57.781979,80.9479085 C59.2224137,80.2273343 60.1324842,78.7551614 60.133148,77.1445469 L60.133148,53.1888285 C60.1380075,51.5729718 59.2271121,50.0938242 57.781979,49.3709086 L56.4389738,48.6975863 C54.9973666,47.9764255 54.0870903,46.5025106 54.0878049,44.8905851 L54.815721,27.1185138 C54.8038089,26.9106864 54.6409746,26.7431997 54.433565,26.7254392 C54.2135188,26.706527 54.0197217,26.8693818 54.0004549,27.0893972 L51.2307342,46.0734488 C50.9446994,47.8156849 51.7643916,49.5535484 53.2907368,50.4409453 L53.4981928,50.5610514 C55.024538,51.4484484 55.8442302,53.1863118 55.5581954,54.928548 L50.721193,77.0608366 C50.4868082,78.477837 49.553339,79.6809448 48.2389991,80.2600278 L45.6694553,81.4246935 C44.3555371,82.0043164 43.4222739,83.2071586 43.1872615,84.6238847 L37.6550992,118.027954 C37.507858,118.902655 36.7514307,119.543773 35.8644256,119.545659 L32.3813472,119.545659 C31.4943421,119.543773 30.7379147,118.902655 30.5906736,118.027954 L25.0257551,84.4491849 C24.7428669,82.7046633 25.5669399,80.9667237 27.0966764,80.0816884 L27.2859345,79.9725009 C28.8164738,79.0882055 29.640825,77.3496793 29.3568558,75.6050044 L24.7928219,55.8639201 C24.5574843,54.4442476 23.6210461,53.2394733 22.3033489,52.6610893 L19.7556426,51.536459 C18.4369602,50.9584972 17.4992266,49.7538176 17.26253,48.3336282 L14.2926324,27.0966764 C14.2800946,26.9840928 14.2220703,26.8815308 14.1320274,26.8127957 C14.0419844,26.7440606 13.927753,26.7151298 13.8158473,26.7327183 C13.6142945,26.7554838 13.464791,26.9304347 13.4737268,27.1330722 L14.1470492,49.6511563 C14.1463346,51.2630818 15.0566109,52.7369967 16.4982181,53.4581575 L17.8448629,54.1278403 C19.2864702,54.849001 20.1967464,56.3229159 20.1960318,57.9348414 L20.1960318,75.4448629 C20.1926164,77.0528543 19.2829565,78.5215465 17.8448629,79.2409453 L16.5018577,79.9142677 C15.0596518,80.6347736 14.1491206,82.1091013 14.1506887,83.7212688 L14.1506887,117.722229 C14.1506887,118.727272 13.3359409,119.542019 12.3308985,119.542019 L2.1764691,119.542019 C1.17142672,119.542019 0.356678462,118.727272 0.356678462,117.722229 L0.356678462,83.1462151 C0.356678462,81.5342896 1.26624058,80.0603747 2.70784785,79.339214 L4.05085303,78.6658916 C5.4914276,77.9494754 6.40523535,76.4823141 6.41294073,74.8734488 L6.41294073,58.8156199 C6.41365532,57.2036944 5.50337904,55.7297795 4.06177177,55.0086187 L2.71876659,54.3352963 C1.27775672,53.6134824 0.367734581,52.139979 0.367597624,50.5282952 L0.367597624,2.18010868 C0.367597624,1.1750663 1.18234546,0.360318463 2.18738784,0.360318463 L19.0677619,0.360318463 C19.9312835,0.361869546 20.6748135,0.970074067 20.8475167,1.81615064 L29.7936055,47.6129913 C30.0701255,48.9922966 31.0100049,50.1460326 32.304916,50.6957159 L35.1183116,51.900417 C36.4086176,52.4534783 37.3438136,53.6064784 37.6187034,54.9831417 L39.8497662,65.4360167 C39.8786646,65.5932021 40.0156888,65.7073311 40.1755087,65.7073311 C40.3353285,65.7073311 40.4723527,65.5932021 40.5012511,65.4360167 L42.4593454,55.7984077 C42.8095945,54.0381773 42.0136781,52.2480941 40.4721345,51.3290029 C38.9290267,50.4063667 38.1355567,48.6108493 38.4922027,46.8486794 L47.3946165,1.82706938 C47.5673197,0.980992809 48.3108497,0.372788287 49.1743713,0.371237205 L66.4587388,0.371237205 C67.4637812,0.371237205 68.278529,1.18598504 68.278529,2.19102742 L68.278529,44.0061671 L68.2712498,43.9952483 Z" id="Shape"></path>
            </g>
        </g>
    </g>
</svg>